# xmcd
#
# Track frame offsets: 
#        183
#        27683
#        51560
#        73418
#        92913
#        119385
#        151080
#        175843
#        202558
#        226508
#        252100
#        277703
#
# Disc length: 3911 seconds
#
# Revision: 1
# Processed by: cddbd v1.5.2PL0 Copyright (c) Steve Scherf et al.
# Submitted via: ExactAudioCopy v1.0b3
#
DISCID=9a0f450c
DTITLE=Imagination - The Love Songs
DYEAR=1990
DGENRE=Soul
TTITLE0=Body Talk
TTITLE1=In The Heat Of The Night
TTITLE2=Heart ´N´ Soul
TTITLE3=Sunshine
TTITLE4=Changes
TTITLE5=So Good So Right
TTITLE6=In And Out Of Love
TTITLE7=Looking At Midnight
TTITLE8=One More Love
TTITLE9=Closer
TTITLE10=Hold Me In Your Arms
TTITLE11=Thankyou My Love
EXTD=
EXTT0=
EXTT1=
EXTT2=
EXTT3=
EXTT4=
EXTT5=
EXTT6=
EXTT7=
EXTT8=
EXTT9=
EXTT10=
EXTT11=
PLAYORDER=
